<svg xmlns="http://www.w3.org/2000/svg" width="500" height="500" style="width:100%;height:100%;transform:translate3d(0,0,0);content-visibility:visible" viewBox="0 0 500 500"><defs><clipPath id="a"><path d="M0 0h500v500H0z"/></clipPath></defs><g clip-path="url(#a)"><path fill="none" stroke="#121330" stroke-linecap="round" stroke-linejoin="round" stroke-width="12" d="M100.075 137.795c-16.357 6.252-34.121 9.678-52.673 9.678-81.447 0-147.477-66.022-147.477-147.469 0-81.447 66.03-147.477 147.477-147.477 18.552 0 36.316 3.427 52.673 9.679C44.64-116.59 5.27-62.891 5.27.004c0 62.895 39.37 116.587 94.805 137.791z" style="display:block" transform="translate(189.955 262.859)"/><path fill="none" stroke="#07A889" stroke-linecap="round" stroke-linejoin="round" stroke-width="12" d="M15.461-14.475 47.336 0 15.461 14.475 0 46.35l-15.461-31.875L-47.336 0l31.875-14.475L0-46.35l15.461 31.875z" style="display:block" transform="translate(297.336 229.634)"/><path fill="none" stroke="#07A889" stroke-linecap="round" stroke-linejoin="round" stroke-width="12" d="M11-10.299 33.68 0 11 10.299 0 32.978l-11-22.679L-33.68 0-11-10.299 0-32.978l11 22.679z" style="display:block" transform="translate(348.433 349.89)"/><path fill="none" stroke="#07A889" stroke-linecap="round" stroke-linejoin="round" stroke-width="12" d="M11-10.299 33.68 0 11 10.299 0 32.978l-11-22.679L-33.68 0-11-10.299 0-32.978l11 22.679z" style="display:block" transform="translate(389.433 122.89)"/><path style="display:none"/></g></svg>