<?xml version="1.0" encoding="utf-8"?>
<!-- Generator: Adobe Illustrator 16.0.0, SVG Export Plug-In . SVG Version: 6.00 Build 0)  -->
<!DOCTYPE svg PUBLIC "-//W3C//DTD SVG 1.1//EN" "http://www.w3.org/Graphics/SVG/1.1/DTD/svg11.dtd">
<svg version="1.1" id="Layer_1" xmlns="http://www.w3.org/2000/svg" xmlns:xlink="http://www.w3.org/1999/xlink" x="0px" y="0px"
	 width="274.5px" height="266px" viewBox="0 0 274.5 266" enable-background="new 0 0 274.5 266" xml:space="preserve">
<g>
	<circle fill-rule="evenodd" clip-rule="evenodd" fill="#17A2B8" cx="138.701" cy="135.102" r="84.807"/>
	<path fill-rule="evenodd" clip-rule="evenodd" fill="#324A5E" d="M181.52,115.411c-3.032,1.189-6.148,2.181-8.983,3.833
		c-0.489,0.501-1.001,0.946-1.675,1.217c-9.466,3.797-18.895,7.682-28.307,11.607c-1.988,0.83-3.762,0.688-5.727-0.133
		c-8.47-3.534-16.984-6.96-25.466-10.467c-1.413-0.584-3.017-0.885-4.035-2.215c-4.024-2.03-8.289-3.492-12.428-5.253
		c-2.645-1.125-5.31-2.2-8.384-3.473c3.203-1.322,6.002-2.479,8.801-3.634c14.392-5.936,28.786-11.868,43.175-17.809
		c0.747-0.308,1.401-0.556,2.276-0.193c17.108,7.093,34.234,14.146,51.355,21.206c0.196,0.082,0.386,0.178,0.911,0.422
		c-3.14,1.354-6.036,2.605-8.933,3.854C183.467,115.282,182.701,115.866,181.52,115.411z"/>
	<path fill-rule="evenodd" clip-rule="evenodd" fill="#2B3B4E" d="M107.327,119.254c2.83,0.698,5.403,2.069,8.089,3.137
		c6.836,2.719,13.715,5.363,20.383,8.455c3.23,1.498,5.828,0.937,8.824-0.341c8.939-3.813,17.97-7.415,26.969-11.087
		c0.29-0.119,0.629-0.118,0.944-0.174c0.025,8.604,0.05,17.209,0.075,25.813c-0.505,0.979-1.437,0.948-2.351,1.042
		c-2.924,0.301-5.866,0.433-8.794,0.555c-5.124,0.21-10.251,0.73-15.391,0.335c-4.867,0.314-9.734,0.329-14.602,0.002
		c-5.674,0.28-11.328-0.063-16.98-0.497c-1.916-0.147-3.855,0.1-5.754-0.374c-0.574-0.143-1.184-0.157-1.462-0.809
		C107.295,136.626,107.311,127.94,107.327,119.254z"/>
	<path fill-rule="evenodd" clip-rule="evenodd" fill="#E5E8ED" d="M107.278,145.312c8.117,0.743,16.257,1.023,24.403,1.172
		c0.544,0.557,0.514,1.271,0.518,1.965c0.021,6.866,0.025,13.731-0.002,20.597c-0.004,0.805,0.025,1.637-0.795,2.147
		c-10.656,0.055-21.275,0.809-31.885,1.715c-4.281,0.367-8.545,0.941-12.813,1.462c-1.973,0.239-2.032,0.236-2.032-1.701
		c-0.003-9.256,0.036-18.513-0.037-27.768c-0.013-1.614,0.479-1.829,1.957-1.64C93.467,144.138,100.352,144.952,107.278,145.312z"/>
	<path fill-rule="evenodd" clip-rule="evenodd" fill="#E5E8ED" d="M145.813,146.48c7.88-0.114,15.748-0.476,23.606-1.08
		c1.066-0.081,2.128-0.227,3.192-0.343c1.167,0.086,2.314-0.083,3.47-0.217c0.548-0.063,1.158-0.276,1.649,0.22
		c0.598,0.609,0.304,1.321,0.179,1.98c-0.159,0.841-0.39,1.671-0.604,2.499c-0.25,0.959,0.137,1.303,1.031,1.307
		c2.954,0.014,5.907,0.025,8.861-0.006c0.849-0.01,1.148-0.42,0.953-1.249c-0.293-1.253-0.635-2.494-0.904-3.753
		c-0.147-0.687-0.355-1.369,0.17-1.993c1.361-0.59,2.851-0.384,4.263-0.671c0.62-0.127,0.866,0.267,0.849,0.854
		c-0.008,0.269,0.005,0.537,0.005,0.806c0,9.294-0.038,18.588,0.037,27.881c0.013,1.605-0.509,1.872-1.952,1.687
		c-9.422-1.21-18.872-2.118-28.363-2.593c-5.416-0.272-10.828-0.615-16.254-0.613c-0.621-0.496-0.659-1.197-0.662-1.906
		c-0.029-7.048-0.031-14.096,0-21.144C145.341,147.549,145.389,146.96,145.813,146.48z"/>
	<path fill-rule="evenodd" clip-rule="evenodd" fill="#FE7058" d="M145.813,146.48c0.311,0.608,0.17,1.264,0.172,1.896
		c0.014,7.605,0.013,15.213,0.016,22.819c-1.049,0.004-0.968,0.756-0.968,1.457c0.001,2.608,0.02,5.216-0.019,7.823
		c-0.007,0.468,0.33,1.05-0.27,1.423c-0.548-0.713-0.721-1.522-0.715-2.414c0.014-1.88,0.037-3.76-0.012-5.639
		c-0.043-1.587-0.311-1.856-1.922-1.888c-2.631-0.053-5.264,0.003-7.894-0.027c-0.759-0.009-1.519-0.015-2.054-0.688
		c-0.248-0.017-0.497-0.034-0.746-0.051c0.005-7.614,0.005-15.229,0.021-22.842c0.002-0.626-0.178-1.294,0.254-1.868
		C136.392,146.481,141.102,146.481,145.813,146.48z"/>
	<path fill-rule="evenodd" clip-rule="evenodd" fill="#F0543F" d="M132.148,171.244c3.649-0.002,7.301,0.039,10.948-0.028
		c1.271-0.024,1.689,0.403,1.661,1.666c-0.07,3.005-0.018,6.012-0.014,9.018c-1.919-1.096-3.457-2.682-5.113-4.098
		c-0.936-0.801-1.496-0.638-2.289,0.063c-1.592,1.407-3.24,2.75-5.193,4.396C132.148,178.341,132.148,174.793,132.148,171.244z"/>
	<path fill-rule="evenodd" clip-rule="evenodd" fill="#F8B44C" d="M187.416,143.846c0.579,2.233,1.14,4.471,1.748,6.696
		c0.217,0.795-0.034,1.087-0.829,1.084c-3.763-0.011-7.526-0.017-11.29,0.005c-0.905,0.005-0.911-0.404-0.716-1.112
		c0.499-1.811,0.938-3.637,1.401-5.458c0.288-1.452,0.726-1.686,1.9-0.516c1.645,1.64,4.525,1.459,6.63-0.143
		C186.595,144.148,186.769,143.478,187.416,143.846z"/>
	<path fill-rule="evenodd" clip-rule="evenodd" fill="#FE7058" d="M181.52,115.411c0.815-0.46,1.661-0.841,2.582-1.036
		c0.01,6.396,0.011,12.794,0.037,19.191c0.004,0.911-0.081,1.518-1.267,1.535c-1.287,0.019-1.341-0.665-1.338-1.628
		C181.546,127.452,181.527,121.433,181.52,115.411z"/>
	<ellipse fill-rule="evenodd" clip-rule="evenodd" fill="#FECF5B" cx="182.682" cy="140.167" rx="5.666" ry="5.869"/>
</g>
</svg>
